<svg id="Capa_1" data-name="Capa 1" xmlns="http://www.w3.org/2000/svg" viewBox="0 0 1080 1080"><defs><style>.cls-1{fill:#11758b;}.cls-2{fill:#fff;}.cls-3{fill:#ace3ef;opacity:0.6;}.cls-4{fill:#082449;}.cls-5{fill:#f9bd00;}.cls-6{fill:#ff0002;fill-rule:evenodd;}.cls-7{fill:#181d1e;}</style></defs><circle class="cls-1" cx="534.43" cy="205.48" r="42.76"/><path class="cls-2" d="M416.55,607.32S390.85,766,531.37,780.46,641,603.5,641,603.5,549.59,645.15,416.55,607.32Z"/><path class="cls-2" d="M391.51,589.35S314.06,666,339.8,716.46c31.72,18,66.71-.51,101-36.43C420.35,643.7,410.89,594.14,391.51,589.35Z"/><path class="cls-3" d="M403,606.85s-22,44.87-8.93,85.52,27-4.76,27-4.76Z"/><path class="cls-4" d="M447,658.42c-.11-1.27-.22-2.47-.26-3.29a159.3,159.3,0,0,0-4.43-31.66c-8-31.24-27-47.19-52.2-43.75l-3.53.48-2.8,2.21c-2.14,1.69-52.46,42.19-62.15,112.5-1.79,13,3.29,25.3,13.92,33.74,11.83,9.38,28.58,12.27,43.52,7.71,1.06-.32,2.12-.68,3.16-1.08,13.86-5.32,32.36-19.75,56.56-44.11l1.28-1.28C449,681.51,447.77,667.62,447,658.42Zm-74.12,52.49c-8.24,3.16-16.53.92-21.1-2.71-3.37-2.67-4.81-5.94-4.29-9.72a144,144,0,0,1,7.87-30.94c9.8,5.68,26.33,16.78,35.95,31.66C381.84,706.63,376.06,709.67,372.83,710.91Zm48.37-39.12-1,1c-8,8-14.76,14.37-20.56,19.43-11.41-17-29.78-29-40.12-34.81a167.27,167.27,0,0,1,37.57-52c5.52.19,14.47,3.5,19.86,24.59a133,133,0,0,1,3.65,26.49c.07,1.34.19,2.79.33,4.32C421.19,663.37,421.71,669.24,421.2,671.79Z"/><path class="cls-2" d="M671,589.35S748.47,666,722.73,716.46C691,734.45,656,716,621.7,680,642.18,643.7,651.64,594.14,671,589.35Z"/><path class="cls-3" d="M659.74,606.85s22,44.87,8.94,85.52-27-4.76-27-4.76Z"/><path class="cls-4" d="M741,694.91c-9.69-70.31-60-110.81-62.15-112.5L676,580.2l-3.54-.48c-25.17-3.44-44.2,12.51-52.19,43.75a159.3,159.3,0,0,0-4.43,31.66c0,.82-.15,2-.26,3.29-.83,9.2-2.07,23.09,6.93,31.47l1.28,1.28c24.2,24.36,42.7,38.79,56.55,44.11,1,.4,2.1.76,3.17,1.08,14.93,4.56,31.69,1.67,43.51-7.71C737.67,720.21,742.74,707.92,741,694.91Zm-99.62-23.12c-.51-2.55,0-8.42.25-11,.14-1.53.27-3,.34-4.32a133.8,133.8,0,0,1,3.64-26.49c5.4-21.09,14.35-24.4,19.87-24.59a167.44,167.44,0,0,1,37.57,52c-10.34,5.83-28.72,17.83-40.12,34.81-5.81-5.06-12.61-11.42-20.57-19.43Zm69.48,36.41c-4.57,3.63-12.87,5.87-21.1,2.71-3.23-1.24-9-4.28-18.43-11.71,9.61-14.88,26.14-26,36-31.66a144,144,0,0,1,7.86,30.94C715.62,702.26,714.17,705.53,710.81,708.2Z"/><path class="cls-2" d="M618.12,573.52s40.47,15.08,30.61,81.75S596.17,780.46,531.37,780.46,423.86,721.93,414,655.27s30.6-81.75,30.6-81.75"/><path class="cls-3" d="M630.77,589.35,427,592.86s105.65,45.37,143.62,126.48c8.91,19,8.32,36.58,2.2,52.26,41.41-18.79,68.32-65.16,75.89-116.33a120.91,120.91,0,0,0,.69-33.42C642.63,610.26,630.77,589.35,630.77,589.35Z"/><path class="cls-4" d="M595.22,666.36c-2.92,24.68-12.77,57.46-38,97.27a90.39,90.39,0,0,1-51.7,0c-25.88-40.91-35.26-74.11-38-97.52l-1-13.17c-.65-25.59,6.31-39.63,6.38-39.77l-5.32-2.73-5.31-2.76c-.36.69-8.71,17.15-7.67,47,.79,22.6,7.34,57.1,31.94,100.59-33.45-19.8-53.61-61-59.66-101.91-8.06-54.46,21.2-67.18,22.45-67.69l-.2.07L430,570c-8,12.23-40.13,10.91-28.85,87.15,5.4,36.53,20,70,41.14,94.26,24,27.52,54.8,42.07,89.13,42.07s65.14-14.55,89.12-42.07c21.14-24.26,35.75-57.73,41.15-94.26,11.27-76.24-34.16-88-36.21-88.75l-11.87,17.31c.07,0,6.85,2.94,13,11.37,9.55,13,12.74,32.46,9.22,56.25-6.05,40.9-26.19,82.06-59.61,101.88,24.59-43.48,31.14-78,31.93-100.56,1-29.84-7.32-46.3-7.68-47l-10.61,5.51c.14.28,7.06,14.25,6.34,40.07Z"/><path class="cls-5" d="M409.47,319.21l25.58,83.35,197.33-19.63,8.32-67.86S537.72,270.47,409.47,319.21Z"/><path class="cls-2" d="M531.08,296.43s-183.48-.58-196.52,106.13,6.68,153.41,34.16,164S483,602.88,529.31,603.5,729,584.91,728,533.63s-7.47-161.76-7.47-161.76S657,295.08,531.08,296.43Z"/><path class="cls-3" d="M340.88,534.53c6.92,17.61,16.74,27.78,27.84,32.06C396.19,577.21,483,602.88,529.31,603.5S729,584.91,728,533.63c-.64-31.09-3.25-83.94-5.21-120.74C685.23,453.13,566.75,554.64,340.88,534.53Z"/><path class="cls-4" d="M284.65,504.14l17.92,3.61a6.66,6.66,0,0,0,8-6.53V403.1a6.67,6.67,0,0,0-8-6.54l-17.92,3.61A22.23,22.23,0,0,0,266.81,422v60.37A22.23,22.23,0,0,0,284.65,504.14Z"/><path class="cls-4" d="M662.87,307.75a379,379,0,0,0-117.5-23.29V253.39a50,50,0,1,0-28.2,0v31.07a379,379,0,0,0-117.51,23.29c-46.73,17.3-78.13,62.62-78.13,112.79v96.35a69.53,69.53,0,0,0,38.33,62.28,380.38,380.38,0,0,0,342.82,0A69.55,69.55,0,0,0,741,516.89V420.54C741,370.37,709.61,325.05,662.87,307.75ZM509.52,205.48a21.75,21.75,0,1,1,21.75,21.75A21.77,21.77,0,0,1,509.52,205.48ZM531.21,312.4h.12a351.06,351.06,0,0,1,100.74,14.77l-13.35,52.27c-.07.26-.11.51-.16.76-44.64-8-88.78-2.23-88.78-2.23s-41.17-5.75-85.81,2.23c-.05-.25-.09-.5-.15-.76l-13.35-52.27A351,351,0,0,1,531.21,312.4Zm181.6,204.49A41.48,41.48,0,0,1,689.92,554a352,352,0,0,1-317.31,0,41.49,41.49,0,0,1-22.88-37.13V420.54a92.34,92.34,0,0,1,54-84l12.68,49.64c-12.46,3.25,242.12,3.25,229.66,0l12.68-49.64a92.34,92.34,0,0,1,54,84Z"/><path class="cls-4" d="M660.67,386c10.36,0,15.7,6.62,15.7,18.54v29.78c0,12.5,5,22,14.75,27.19,1.63.86,3.39,1.49,5.09,2.24,1.31.59,2.8,1.7,2,3.24a4,4,0,0,1-2,1.62c-1.73.78-3.49,1.42-5.17,2.31-9.59,5.05-14.71,14.18-14.71,25.86v29.28c0,12.19-5.34,18.53-15.7,18.53H462.27c-.18,0-.34,0-.51,0H401.83c-10,0-15.1-6.36-15.1-18.53V496.82c0-12-5.17-21.23-14.83-26.22a33.37,33.37,0,0,0-3.87-1.7c-1.1-.41-2.63-.65-3.45-1.5a1.6,1.6,0,0,1-.49-1.28c.21-1.7,2.8-2,4.12-2.53a36.53,36.53,0,0,0,3.66-1.68c9.79-5.09,14.86-14.74,14.86-27.56V404.57c0-11.9,5.13-18.53,15.1-18.53h131v0H660.67m0-12H520.82v0h-119c-10.88,0-17.21,5-20.61,9.26-4.28,5.33-6.45,12.47-6.45,21.23v29.78c0,12.57-6.34,15.86-8.42,16.94a24.79,24.79,0,0,1-2.28,1.08l-.22.06c-8.65,2.55-11.1,8-11.63,12.18v.14a13.58,13.58,0,0,0,3.7,10.89l.05.05.05.05a16.93,16.93,0,0,0,7.67,4.32l.28.09a21.29,21.29,0,0,1,2.44,1.07c5.64,2.91,8.38,8,8.38,15.6v29.29c0,8.88,2.18,16.08,6.49,21.37,3.38,4.16,9.69,9.12,20.57,9.12h60.4l.32,0H660.67c13.37,0,27.66-8,27.66-30.5V496.8c0-7.33,2.73-12.32,8.33-15.27.65-.35,1.48-.7,2.44-1.1.69-.29,1.37-.58,2-.89l.05,0,0,0a15.55,15.55,0,0,0,7.61-7,13.58,13.58,0,0,0,.79-10.8,15.42,15.42,0,0,0-8.58-8.85c-.67-.3-1.33-.57-2-.85-.91-.37-1.76-.72-2.34-1-2.06-1.1-8.4-4.48-8.4-16.62V404.56c0-8.85-2.27-16.06-6.75-21.42-3.47-4.14-9.91-9.09-20.91-9.09Z"/><path class="cls-2" d="M698.21,467a4,4,0,0,1-2,1.62c-1.73.78-3.49,1.42-5.17,2.31-9.59,5.05-14.71,14.18-14.71,25.86v29.28c0,12.19-5.34,18.53-15.7,18.53H462.27c-.18,0-.34,0-.51,0H401.83c-10,0-15.1-6.36-15.1-18.53V496.82c0-12-5.17-21.23-14.83-26.22a33.37,33.37,0,0,0-3.87-1.7c-1.1-.41-2.63-.65-3.45-1.5a1.6,1.6,0,0,1-.49-1.28c.21-1.7,2.8-2,4.12-2.53a36.53,36.53,0,0,0,3.66-1.68c9.79-5.09,14.86-14.74,14.86-27.56V404.57c0-11.9,5.13-18.53,15.1-18.53h131v0H660.67c10.36,0,15.7,6.62,15.7,18.54v29.78c0,12.5,5,22,14.75,27.19,1.63.86,3.39,1.49,5.09,2.24C697.52,464.36,699,465.47,698.21,467Z"/><path class="cls-4" d="M777.89,504.14,760,507.75a6.67,6.67,0,0,1-8-6.53V403.1a6.68,6.68,0,0,1,8-6.54l17.92,3.61A22.24,22.24,0,0,1,795.73,422v60.37A22.24,22.24,0,0,1,777.89,504.14Z"/><path class="cls-1" d="M500.93,480.11,465.87,432a10.4,10.4,0,0,0-17,0l-35.06,48.11a8.9,8.9,0,0,0-1.73,5.39c0,4.46,3.69,8.41,7.87,8.41,2.57,0,5.19-1.89,6.7-3.73l27.91-38.08a3.2,3.2,0,0,1,5.16,0l28.56,38.76a8.35,8.35,0,0,0,6.53,3.06c4.13,0,7.82-4,7.82-8.41A8.9,8.9,0,0,0,500.93,480.11Z"/><path class="cls-1" d="M648.67,480.11l-35-48.11a10.41,10.41,0,0,0-17,0l-35,48.11a8.84,8.84,0,0,0-1.73,5.39c0,4.46,3.68,8.41,7.86,8.41,2.58,0,5.2-1.89,6.71-3.73l27.91-38.08a3.19,3.19,0,0,1,5.15,0l28.56,38.76a8.35,8.35,0,0,0,6.53,3.06c4.14,0,7.82-4,7.82-8.41A8.84,8.84,0,0,0,648.67,480.11Z"/><path class="cls-6" d="M560.15,646l-15.74,16.6a1.45,1.45,0,0,0,1.05,2.45l32.15-.67a1.45,1.45,0,0,0,1-2.49l-16.4-15.93A1.42,1.42,0,0,0,560.15,646Z"/><path class="cls-6" d="M551,642.63,532.4,662.2a1.3,1.3,0,0,1-1,.46,1.39,1.39,0,0,1-1-.42L511,643.46a1.47,1.47,0,0,1,1-2.5l19.42-.41,18.52-.38A1.45,1.45,0,0,1,551,642.63Z"/><path class="cls-6" d="M579.5,674.32l-42,.87a1.45,1.45,0,0,0-1.4,1.47l1.12,54.71a1.42,1.42,0,0,0,2.57.83l40.93-55.58A1.44,1.44,0,0,0,579.5,674.32Z"/><path class="cls-6" d="M516.17,665.67l-8.59.18-23.73.46a1.41,1.41,0,0,1-1-2.4l15.81-16.66a1.37,1.37,0,0,1,2,0l6.95,6.75,9.51,9.25A1.43,1.43,0,0,1,516.17,665.67Z"/><path class="cls-6" d="M525.29,675.46l-42,.87a1.44,1.44,0,0,0-1.08,2.35l43.16,53.83a1.42,1.42,0,0,0,2.53-.93l-1.11-54.71A1.43,1.43,0,0,0,525.29,675.46Z"/><path class="cls-6" d="M531.39,640.55v22.11a1.39,1.39,0,0,1-1-.42L511,643.46a1.47,1.47,0,0,1,1-2.5Z"/><path class="cls-7" d="M176.83,884.06H138.31v38.26h-18V832.41h18v37h38.52v-37h18v89.91h-18Z"/><path class="cls-7" d="M264.8,847H230.67V869.5h30.27v14.3H230.67v23.83H264.8v14.69H212.63v-90H264.8Z"/><path class="cls-7" d="M314.91,832.41c21.64,0,32.46,12.49,32.46,27.56,0,10.95-6.05,22-20.48,25.89l21.51,36.46H327.53l-19.83-35h-8.51v35h-18V832.41Zm-.64,14.94H299.19v26.4h15.08c10,0,14.55-5.28,14.55-13.39S324.31,847.35,314.27,847.35Z"/><path class="cls-7" d="M405.46,923.22c-25.37,0-46.11-19.06-46.11-46.12s20.74-46,46.11-46c25.64,0,46,19.06,46,46S431,923.22,405.46,923.22Zm0-16.1c16.23,0,27.44-11.72,27.44-30s-11.21-29.75-27.44-29.75S377.9,858.81,377.9,877.1,389.1,907.12,405.46,907.12Z"/><path class="cls-7" d="M505.68,832.63c19.45,0,34.9,9.79,41.6,27.17h-14c-4.89-10.82-14.43-16.87-27.56-16.87-18.81,0-32.85,13.65-32.85,35.68s14,35.56,32.85,35.56c13.13,0,22.67-6.06,27.56-16.75h14c-6.7,17.26-22.15,26.92-41.6,26.92-25.12,0-44.83-18.81-44.83-45.73S480.56,832.63,505.68,832.63Z"/><path class="cls-7" d="M605.37,924.47c-25.25,0-45.08-18.94-45.08-45.86s19.83-45.86,45.08-45.86,45.09,18.94,45.09,45.86S630.75,924.47,605.37,924.47Zm0-10.18c18.94,0,33.11-13.78,33.11-35.68s-14.17-35.68-33.11-35.68-33.1,13.65-33.1,35.68S586.44,914.29,605.37,914.29Z"/><path class="cls-7" d="M741.53,878.87c0,27.82-18.17,44.7-47.67,44.7h-28V833.78h28C723.36,833.78,741.53,851.05,741.53,878.87Zm-47.67,35c23.45,0,35.68-13.14,35.68-35s-12.23-35.55-35.68-35.55H677.63v70.59Z"/><path class="cls-7" d="M805.28,843.32H768.7v30h32.72V883H768.7v30.92h36.58v9.66H757V833.66h48.3Z"/><path class="cls-7" d="M852,833.78c21.12,0,31.17,11.73,31.17,26.41,0,11.47-6.31,22.42-21.38,25.76l22.54,37.62h-14L849,886.86H834.78v36.71H823.06V833.78Zm0,9.67H834.78v34H852c13.27,0,19.06-7.21,19.06-17.26S865.44,843.45,852,843.45Z"/><path class="cls-7" d="M929.84,924.47c-18,0-30.79-10.05-31.05-24.86h12.5c.77,7.47,6.05,14.94,18.55,14.94,11.33,0,18-6.44,18-14.94,0-24.22-48.56-8.76-48.56-42.12,0-14.82,12-24.86,29.76-24.86,17.13,0,28.33,9.4,29.75,23H945.94c-.77-6-6.44-12.88-17.39-13-9.66-.25-17.26,4.77-17.26,14.43,0,23.19,48.43,8.76,48.43,42C959.72,911.85,949.29,924.47,929.84,924.47Z"/></svg>